# xmcd
#
# Track frame offsets:
#	150
#	21987
#	31005
#	41560
#	51290
#	71550
#	79655
#	100392
#	112525
#	121337
#	130442
#	140600
#	151735
#	161962
#	183175
#	202915
#	218730
#	235067
#
# Disc length: 3278 seconds
#
# Revision: 1
# Processed by: cddbd v1.5.1PL2 Copyright (c) Steve Scherf et al.
# Submitted via: audiograbber 1.81.02
#
DISCID=ed0ccc12
DTITLE= Μελίσματα στην Αγιάσο Β'
DYEAR=1998
DGENRE=
TTITLE0=Συρτός Νύφης
TTITLE1=Ωραία Πουτζαλιά μου
TTITLE2=Μπάλος Σμύρνης
TTITLE3=Καρσιλαμάς Μικράς Ασίας
TTITLE4=Παραπονιάρικο μου
TTITLE5=Ζεϊμπέκικο Σμύρνης
TTITLE6=Ανάθεμα τον αίτιο
TTITLE7=Σκοπός με μαχαίρι
TTITLE8=Εσύ κοιμάσαι στα σεντονάκια
TTITLE9=Ταταυλιανός
TTITLE10=Εγλεζίτσα
TTITLE11=Παλιός καρσιλαμάς
TTITLE12=Ζεϊμπέκικο Μικράς Ασίας
TTITLE13=Τραγούδι του γάμου
TTITLE14=Μάνα μου τα λουλούδια σου
TTITLE15=Του χωρισμού σου ο καημός
TTITLE16=Σκοπός στο τέλος του γάμου
TTITLE17=Αντικρυστός, τα ποτηράκια
EXTD=
EXTT0=
EXTT1=
EXTT2=
EXTT3=
EXTT4=
EXTT5=
EXTT6=
EXTT7=
EXTT8=
EXTT9=
EXTT10=
EXTT11=
EXTT12=
EXTT13=
EXTT14=
EXTT15=
EXTT16=
EXTT17=
PLAYORDER=
